# Blender 4.2.8 LTS
# www.blender.org
mtllib rock1.mtl
o _12_tree
v 10.613920 -0.028425 0.097537
v 10.566429 -0.028425 0.196153
v 10.459718 -0.028425 0.220510
v 10.374142 -0.028425 0.152265
v 10.374142 -0.028425 0.042809
v 10.459445 -0.028422 -0.027438
v 10.566429 -0.028425 -0.001080
v 10.461675 0.297032 -0.015727
v 10.542348 0.319281 0.170886
v 10.465772 0.298407 0.189002
v 10.404362 0.281668 0.138243
v 10.465772 0.298407 0.006071
v 10.546498 0.304055 0.170886
v 10.580578 0.313345 0.097537
v 10.469922 0.283181 0.189002
v 10.408512 0.266442 0.138243
v 10.408512 0.266442 0.056831
v 10.469921 0.283181 0.006071
v 10.546498 0.304055 0.024187
v 10.700539 -0.028923 -0.003274
v 10.583879 -0.028923 0.316457
v 10.534744 -0.028923 0.332922
v 10.248989 -0.028923 0.148041
v 10.243870 -0.028923 0.096474
v 10.673553 -0.028923 -0.047513
v 10.374142 0.055260 0.130363
v 10.387780 0.038185 0.163141
v 10.398500 0.279924 0.159246
v 10.384019 0.276056 0.126287
v 10.248989 -0.013973 0.148041
v 10.386089 0.043109 0.033281
v 10.374142 0.055260 0.059651
v 10.384536 0.276161 0.062439
v 10.396707 0.279455 0.037317
v 10.404362 0.281668 0.056831
v 10.246023 0.012158 0.121035
v 10.243870 -0.006681 0.096474
v 10.607695 0.056122 0.088910
v 10.555534 0.055260 0.198640
v 10.570393 0.046742 0.187924
v 10.451578 0.047019 0.214019
v 10.470917 0.055260 0.217953
v 10.571273 0.055260 0.008977
v 10.557750 0.046696 -0.003061
v 10.558681 0.173687 0.188764
v 10.607554 0.048859 0.108193
v 10.460758 0.176619 0.209777
v 10.558105 0.172485 0.005750
v 10.556978 0.323270 0.186632
v 10.596942 0.334161 0.097432
v 10.576428 0.328570 0.097537
v 10.462791 0.297596 0.210309
v 10.556142 0.323040 0.007662
v 10.542348 0.319281 0.024187
v 10.694707 0.010696 -0.012833
v 10.700539 -0.001223 -0.003274
v 10.583879 -0.001838 0.316457
v 10.573162 0.010696 0.320048
v 10.537551 0.006841 0.331993
v 10.673553 -0.001936 -0.047513
v 10.679410 0.010696 -0.037910
vn 0.2392 0.0020 -0.9710
vn 0.2363 0.0154 -0.9716
vn -0.2683 0.9633 0.0039
vn -0.2681 0.9634 0.0045
vn -0.2662 0.9639 0.0007
vn -0.2685 0.9633 -0.0044
vn -0.2683 0.9633 -0.0033
vn -0.2678 0.9635 -0.0039
vn -0.6357 0.0034 -0.7719
vn 0.6456 0.0515 -0.7619
vn 0.6030 0.0504 0.7961
vn -0.4195 0.7212 0.5513
vn 0.9026 0.0805 0.4228
vn -0.9989 0.0458 -0.0038
vn -0.6263 0.0362 -0.7787
vn -0.0478 -0.1242 0.9911
vn -0.3866 -0.0507 -0.9208
vn 0.2162 0.0796 0.9731
vn -0.2630 0.9648 -0.0000
vn 0.9899 -0.0490 -0.1327
vn -0.8198 -0.0011 0.5727
vn 0.3100 0.9371 -0.1604
vn -0.3189 0.9478 -0.0000
vn 0.2393 0.0427 -0.9700
vn -0.9952 -0.0048 0.0981
vn -0.2654 0.9641 -0.0070
vn -0.2629 0.9648 -0.0033
vn -0.2629 0.9648 -0.0032
vn -0.2653 0.9641 -0.0070
vn 0.8948 0.0374 -0.4449
vn -0.6231 0.0070 0.7821
vn 0.2260 0.0055 0.9741
vn -0.8693 -0.2369 0.4339
vn -0.2646 0.9644 0.0013
vn -0.2644 0.9644 0.0012
vn 0.8537 -0.0000 -0.5208
vn 0.6015 0.1640 0.7818
vn 0.6015 0.1640 -0.7818
vn -0.8693 -0.2369 -0.4339
vn -0.2147 -0.0585 0.9749
vn 0.9648 0.2630 -0.0000
vn -0.2147 -0.0585 -0.9749
vn 0.3179 -0.0001 0.9481
vn -0.6031 0.0498 0.7961
vn 0.7610 -0.0197 0.6485
vn 0.9059 0.0904 -0.4138
vn 0.9033 0.0074 0.4289
vn 0.0604 0.9356 0.3479
vn -0.3868 -0.0443 -0.9211
vn 0.8958 0.0385 0.4429
vn -0.9149 0.0477 0.4009
vn -0.3150 0.7256 0.6118
vn -0.6235 -0.0000 0.7818
vn -0.9014 0.0478 -0.4304
vn -0.4821 0.7042 -0.5212
vn 0.6830 0.7082 0.1789
vn -0.2185 0.0474 0.9747
vn 0.9990 0.0380 0.0216
vn 0.6974 0.6526 0.2964
vn 0.0087 0.7105 -0.7036
vt 0.717650 0.830688
vt 0.811604 0.761721
vt 0.818158 0.835037
vt 0.819884 0.639313
vt 0.733202 0.514367
vt 0.822543 0.492941
vt 0.059821 0.663523
vt 0.059447 0.630746
vt 0.071714 0.648360
vt 0.102291 0.740624
vt 0.083434 0.720732
vt 0.101281 0.721460
vt 0.569279 0.723094
vt 0.663525 0.793981
vt 0.552771 0.792370
vt 0.829900 0.753699
vt 0.195468 0.356155
vt 0.140327 0.253617
vt 0.153744 0.238924
vt 0.410022 0.367720
vt 0.542104 0.321254
vt 0.556540 0.329048
vt 0.228869 0.211641
vt 0.720092 0.107319
vt 0.727732 0.322063
vt 0.669954 0.321085
vt 0.668223 0.106530
vt 0.579162 0.493956
vt 0.663525 0.478118
vt 0.534290 0.830140
vt 0.549257 0.830695
vt 0.549257 0.921012
vt 0.483273 0.921853
vt 0.326836 0.563041
vt 0.353871 0.562627
vt 0.353871 0.672793
vt 0.278396 0.679467
vt 0.116199 0.394795
vt 0.070119 0.284996
vt 0.240424 0.642926
vt 0.223993 0.647315
vt 0.170122 0.588900
vt 0.176093 0.571565
vt 0.431601 0.829701
vt 0.458716 0.830404
vt 0.460377 0.916354
vt 0.385556 0.916354
vt 0.546270 0.402452
vt 0.410785 0.402452
vt 0.851534 0.272743
vt 0.879254 0.276904
vt 0.879254 0.399317
vt 0.794776 0.396861
vt 0.255053 0.912758
vt 0.185890 0.925056
vt 0.238728 0.814327
vt 0.585989 0.825784
vt 0.608291 0.825534
vt 0.608291 0.869297
vt 0.593301 0.869465
vt 0.567094 0.846678
vt 0.168788 0.753620
vt 0.223400 0.720622
vt 0.240424 0.732447
vt 0.173511 0.774025
vt 0.910720 0.481474
vt 0.908306 0.752272
vt 0.555068 0.203185
vt 0.553825 0.085540
vt 0.632883 0.102518
vt 0.165235 0.502215
vt 0.254889 0.489728
vt 0.356621 0.850181
vt 0.341118 0.850977
vt 0.333979 0.773364
vt 0.349482 0.772569
vt 0.102351 0.589365
vt 0.092231 0.570884
vt 0.912464 0.803517
vt 0.922760 0.815093
vt 0.922206 0.841996
vt 0.873453 0.841996
vt 0.873993 0.815786
vt 0.884829 0.803517
vt 0.936659 0.268479
vt 0.952341 0.269332
vt 0.947547 0.348377
vt 0.931865 0.347523
vt 0.930255 0.171990
vt 0.899189 0.230773
vt 0.831416 0.230773
vt 0.777972 0.171990
vt 0.779100 0.098688
vt 0.833951 0.066066
vt 0.901222 0.098688
vt 0.621867 0.828970
vt 0.637598 0.828952
vt 0.637598 0.908148
vt 0.621867 0.908166
vt 0.918941 0.268181
vt 0.914812 0.338651
vt 0.899092 0.338696
vt 0.903222 0.268226
vt 0.356621 0.712267
vt 0.341118 0.713063
vt 0.952341 0.399435
vt 0.936659 0.398582
vt 0.918941 0.410848
vt 0.903222 0.410893
vt 0.276360 0.706810
vt 0.312180 0.704808
vt 0.312180 0.751645
vt 0.285053 0.751140
vt 0.272498 0.740691
vt 0.635187 0.337433
vt 0.341199 0.112974
vt 0.209127 0.138325
vt 0.330219 0.088254
vt 0.116193 0.174898
vt 0.093853 0.815281
vt 0.128371 0.817974
vt 0.138702 0.943264
vt 0.056788 0.947247
vt 0.416791 0.767435
vt 0.416423 0.789048
vt 0.341199 0.467329
vt 0.270386 0.821148
vt 0.291932 0.925056
vt 0.651800 0.402176
vt 0.543855 0.711474
vt 0.554069 0.497305
vt 0.403789 0.749829
vt 0.143085 0.815597
vt 0.158199 0.947247
vt 0.243605 0.213913
vt 0.837966 0.267614
vt 0.775165 0.401683
s 1
usemtl _12_tree
f 6/1/1 44/2/1 7/3/1
f 48/4/2 8/5/2 53/6/2
f 29/7/3 28/8/4 11/9/5
f 34/10/6 33/11/7 35/12/8
f 31/13/9 6/14/9 5/15/9
f 48/4/10 43/16/10 44/2/10
f 45/17/11 39/18/11 40/19/11
f 59/20/12 42/21/12 41/22/12
f 40/19/13 46/23/13 45/17/13
f 33/24/14 32/25/14 26/26/14 29/27/14
f 34/28/15 8/29/15 6/14/15 31/13/15
f 30/30/16 23/31/16 4/32/16 27/33/16
f 60/34/17 25/35/17 7/36/17 44/37/17
f 45/17/18 47/38/18 42/39/18 39/18/18
f 50/40/19 51/41/19 9/42/19 49/43/19
f 57/44/20 21/45/20 2/46/20 40/47/20
f 59/20/21 41/22/21 3/48/21 22/49/21
f 55/50/22 61/51/22 43/52/22 38/53/22
f 26/54/23 32/55/23 36/56/23
f 48/4/24 44/2/24 6/1/24 8/5/24
f 37/57/25 24/58/25 23/59/25 30/60/25 36/61/25
f 12/62/26 54/63/27 53/64/28 8/65/29
f 53/6/30 50/66/30 38/67/30 48/4/30
f 34/10/6 35/12/8 12/62/26 8/65/29
f 47/68/31 52/69/31 28/70/31
f 52/71/32 47/38/32 45/17/32 49/72/32
f 14/73/33 51/74/33 54/75/33 19/76/33
f 9/42/19 10/77/34 52/78/35 49/43/19
f 54/63/27 51/41/19 50/40/19 53/64/28
f 55/79/36 56/80/36 20/81/36 25/82/36 60/83/36 61/84/36
f 10/77/34 11/9/5 28/8/4 52/78/35
f 29/7/3 11/9/5 35/12/8 33/11/7
f 18/85/37 12/86/37 35/87/37 17/88/37
f 16/89/19 15/90/19 13/91/19 14/92/19 19/93/19 18/94/19 17/95/19
f 16/96/38 11/97/38 10/98/38 15/99/38
f 14/100/39 13/101/39 9/102/39 51/103/39
f 18/104/40 19/76/40 54/75/40 12/105/40
f 17/88/41 35/87/41 11/106/41 16/107/41
f 15/108/42 10/109/42 9/102/42 13/101/42
f 59/110/43 22/111/43 21/112/43 57/113/43 58/114/43
f 28/70/44 27/115/44 41/22/44 47/68/44
f 56/116/45 46/23/45 1/117/45 20/118/45
f 43/16/46 48/4/46 38/67/46
f 2/119/47 1/117/47 46/23/47 40/19/47
f 59/120/48 58/121/48 39/122/48 42/123/48
f 37/124/49 31/13/49 5/15/49 24/125/49
f 49/72/50 45/17/50 46/23/50 50/126/50
f 26/26/51 27/115/51 28/70/51 29/27/51
f 30/127/52 27/128/52 26/54/52 36/56/52
f 27/115/53 4/129/53 3/48/53 41/22/53
f 32/130/54 33/131/54 34/28/54 31/13/54
f 37/124/55 36/132/55 32/130/55 31/13/55
f 39/122/56 58/121/56 57/133/56 40/134/56
f 47/68/57 41/22/57 42/21/57
f 46/23/58 38/135/58 50/126/58
f 56/136/59 55/50/59 38/53/59 46/137/59
f 43/16/60 61/84/60 60/83/60 44/2/60
